<svg width="80" height="19" viewBox="0 0 80 19" fill="none" xmlns="http://www.w3.org/2000/svg">
<path d="M6.8 18.25C5.41667 18.25 4.21667 18.0333 3.2 17.6C2.2 17.1667 1.43333 16.6 0.9 15.9C0.366667 15.1833 0.0833334 14.4167 0.0500001 13.6C0.0500001 13.4667 0.1 13.35 0.2 13.25C0.316667 13.1333 0.45 13.075 0.6 13.075H1.875C2.19167 13.075 2.40833 13.2417 2.525 13.575C2.675 14.275 3.1 14.875 3.8 15.375C4.51667 15.875 5.51667 16.125 6.8 16.125C8.18333 16.125 9.225 15.8833 9.925 15.4C10.625 14.9 10.975 14.2083 10.975 13.325C10.975 12.7583 10.8 12.3 10.45 11.95C10.1167 11.6 9.61667 11.2917 8.95 11.025C8.28333 10.7583 7.28333 10.425 5.95 10.025C4.65 9.65833 3.61667 9.26667 2.85 8.85C2.08333 8.43333 1.50833 7.91667 1.125 7.3C0.741667 6.68333 0.55 5.90833 0.55 4.975C0.55 4.075 0.791667 3.26667 1.275 2.55C1.775 1.83333 2.48333 1.275 3.4 0.874998C4.31667 0.458332 5.40833 0.249999 6.675 0.249999C7.975 0.249999 9.09167 0.483332 10.025 0.949999C10.9583 1.4 11.6667 1.975 12.15 2.675C12.6333 3.375 12.8917 4.075 12.925 4.775C12.925 4.90833 12.875 5.025 12.775 5.125C12.6917 5.225 12.5667 5.275 12.4 5.275H11.075C10.725 5.275 10.5083 5.11667 10.425 4.8C10.325 4.1 9.93333 3.525 9.25 3.075C8.56667 2.60833 7.70833 2.375 6.675 2.375C5.54167 2.375 4.65 2.59167 4 3.025C3.35 3.45833 3.025 4.1 3.025 4.95C3.025 5.51667 3.175 5.98333 3.475 6.35C3.79167 6.71667 4.26667 7.04167 4.9 7.325C5.53333 7.59167 6.45833 7.9 7.675 8.25C9.09167 8.63333 10.2083 9.03333 11.025 9.45C11.8417 9.85 12.45 10.3583 12.85 10.975C13.25 11.575 13.45 12.3417 13.45 13.275C13.45 14.825 12.85 16.0417 11.65 16.925C10.45 17.8083 8.83333 18.25 6.8 18.25ZM16.0018 18C15.8351 18 15.6934 17.95 15.5768 17.85C15.4768 17.7333 15.4268 17.5917 15.4268 17.425V0.824999C15.4268 0.658333 15.4768 0.524999 15.5768 0.425C15.6934 0.308333 15.8351 0.249999 16.0018 0.249999H17.2518C17.4184 0.249999 17.5518 0.308333 17.6518 0.425C17.7684 0.524999 17.8268 0.658333 17.8268 0.824999V6.65C18.3101 6.03333 18.8768 5.56667 19.5268 5.25C20.1768 4.91667 20.9851 4.75 21.9518 4.75C23.5518 4.75 24.7934 5.26667 25.6768 6.3C26.5768 7.31667 27.0268 8.675 27.0268 10.375V17.425C27.0268 17.5917 26.9684 17.7333 26.8518 17.85C26.7518 17.95 26.6184 18 26.4518 18H25.2018C25.0351 18 24.8934 17.95 24.7768 17.85C24.6768 17.7333 24.6268 17.5917 24.6268 17.425V10.5C24.6268 9.31667 24.3351 8.4 23.7518 7.75C23.1851 7.1 22.3601 6.775 21.2768 6.775C20.2268 6.775 19.3851 7.10833 18.7518 7.775C18.1351 8.425 17.8268 9.33333 17.8268 10.5V17.425C17.8268 17.5917 17.7684 17.7333 17.6518 17.85C17.5518 17.95 17.4184 18 17.2518 18H16.0018ZM33.2611 18.25C32.4445 18.25 31.6861 18.0833 30.9861 17.75C30.2861 17.4167 29.7278 16.9667 29.3111 16.4C28.9111 15.8167 28.7111 15.175 28.7111 14.475C28.7111 13.375 29.1611 12.475 30.0611 11.775C30.9778 11.0583 32.2111 10.5917 33.7611 10.375L37.4861 9.85V9.125C37.4861 7.425 36.5111 6.575 34.5611 6.575C33.8278 6.575 33.2278 6.73333 32.7611 7.05C32.2945 7.35 31.9445 7.70833 31.7111 8.125C31.6611 8.275 31.5945 8.38333 31.5111 8.45C31.4445 8.51667 31.3445 8.55 31.2111 8.55H30.1361C29.9861 8.55 29.8528 8.5 29.7361 8.4C29.6361 8.28333 29.5861 8.15 29.5861 8C29.6028 7.6 29.7861 7.15 30.1361 6.65C30.5028 6.13333 31.0611 5.69167 31.8111 5.325C32.5611 4.94167 33.4861 4.75 34.5861 4.75C36.4528 4.75 37.7945 5.19167 38.6111 6.075C39.4278 6.94167 39.8361 8.025 39.8361 9.325V17.425C39.8361 17.5917 39.7778 17.7333 39.6611 17.85C39.5611 17.95 39.4278 18 39.2611 18H38.1111C37.9445 18 37.8028 17.95 37.6861 17.85C37.5861 17.7333 37.5361 17.5917 37.5361 17.425V16.35C37.1695 16.8833 36.6361 17.3333 35.9361 17.7C35.2361 18.0667 34.3445 18.25 33.2611 18.25ZM33.7861 16.375C34.8695 16.375 35.7528 16.025 36.4361 15.325C37.1361 14.6083 37.4861 13.5833 37.4861 12.25V11.55L34.5861 11.975C33.4028 12.1417 32.5111 12.425 31.9111 12.825C31.3111 13.2083 31.0111 13.7 31.0111 14.3C31.0111 14.9667 31.2861 15.4833 31.8361 15.85C32.3861 16.2 33.0361 16.375 33.7861 16.375ZM47.1801 18.25C45.4467 18.25 44.1384 17.6833 43.2551 16.55C42.3717 15.4167 41.9051 13.9833 41.8551 12.25L41.8301 11.5L41.8551 10.75C41.9051 9.03333 42.3717 7.60833 43.2551 6.475C44.1384 5.325 45.4467 4.75 47.1801 4.75C48.8967 4.75 50.2467 5.35833 51.2301 6.575V0.824999C51.2301 0.658333 51.2801 0.524999 51.3801 0.425C51.4967 0.308333 51.6384 0.249999 51.8051 0.249999H53.0051C53.1717 0.249999 53.3051 0.308333 53.4051 0.425C53.5217 0.524999 53.5801 0.658333 53.5801 0.824999V17.425C53.5801 17.5917 53.5217 17.7333 53.4051 17.85C53.3051 17.95 53.1717 18 53.0051 18H51.8801C51.7134 18 51.5717 17.95 51.4551 17.85C51.3551 17.7333 51.3051 17.5917 51.3051 17.425V16.375C50.3384 17.625 48.9634 18.25 47.1801 18.25ZM47.7051 16.225C48.8551 16.225 49.7134 15.85 50.2801 15.1C50.8634 14.3333 51.1801 13.425 51.2301 12.375C51.2467 12.1917 51.2551 11.875 51.2551 11.425C51.2551 10.9583 51.2467 10.6333 51.2301 10.45C51.1967 9.46667 50.8801 8.60833 50.2801 7.875C49.6801 7.14167 48.8217 6.775 47.7051 6.775C46.5217 6.775 45.6551 7.14167 45.1051 7.875C44.5717 8.60833 44.2801 9.575 44.2301 10.775L44.2051 11.5C44.2051 14.65 45.3717 16.225 47.7051 16.225ZM61.4982 18.25C59.7816 18.25 58.4066 17.725 57.3732 16.675C56.3566 15.6083 55.7982 14.1583 55.6982 12.325L55.6732 11.475L55.6982 10.65C55.8149 8.85 56.3816 7.41667 57.3982 6.35C58.4316 5.28333 59.7899 4.75 61.4732 4.75C63.3232 4.75 64.7566 5.34167 65.7732 6.525C66.7899 7.69167 67.2982 9.275 67.2982 11.275V11.7C67.2982 11.8667 67.2399 12.0083 67.1232 12.125C67.0232 12.225 66.8899 12.275 66.7232 12.275H58.0732V12.5C58.1232 13.5833 58.4482 14.5083 59.0482 15.275C59.6649 16.025 60.4732 16.4 61.4732 16.4C62.2399 16.4 62.8649 16.25 63.3482 15.95C63.8482 15.6333 64.2149 15.3083 64.4482 14.975C64.5982 14.775 64.7066 14.6583 64.7732 14.625C64.8566 14.575 64.9982 14.55 65.1982 14.55H66.4232C66.5732 14.55 66.6982 14.5917 66.7982 14.675C66.8982 14.7583 66.9482 14.875 66.9482 15.025C66.9482 15.3917 66.7149 15.8333 66.2482 16.35C65.7982 16.8667 65.1566 17.3167 64.3232 17.7C63.5066 18.0667 62.5649 18.25 61.4982 18.25ZM64.9232 10.55V10.475C64.9232 9.325 64.6066 8.39167 63.9732 7.675C63.3566 6.94167 62.5232 6.575 61.4732 6.575C60.4232 6.575 59.5899 6.94167 58.9732 7.675C58.3732 8.39167 58.0732 9.325 58.0732 10.475V10.55H64.9232ZM73.7875 18.25C72.6208 18.25 71.6375 18.0667 70.8375 17.7C70.0542 17.3167 69.4625 16.8833 69.0625 16.4C68.6792 15.9167 68.4875 15.5167 68.4875 15.2C68.4875 15.0333 68.5458 14.9083 68.6625 14.825C68.7958 14.725 68.9292 14.675 69.0625 14.675H70.1875C70.3542 14.675 70.5042 14.7583 70.6375 14.925C71.0375 15.3917 71.4708 15.7583 71.9375 16.025C72.4042 16.2917 73.0292 16.425 73.8125 16.425C74.6792 16.425 75.3792 16.2583 75.9125 15.925C76.4625 15.575 76.7375 15.1 76.7375 14.5C76.7375 14.1 76.6208 13.775 76.3875 13.525C76.1708 13.2583 75.7875 13.0333 75.2375 12.85C74.7042 12.65 73.9042 12.4333 72.8375 12.2C71.3875 11.8833 70.3542 11.425 69.7375 10.825C69.1375 10.225 68.8375 9.45 68.8375 8.5C68.8375 7.86667 69.0208 7.26667 69.3875 6.7C69.7708 6.11667 70.3208 5.65 71.0375 5.3C71.7708 4.93333 72.6458 4.75 73.6625 4.75C74.7292 4.75 75.6375 4.925 76.3875 5.275C77.1375 5.625 77.6958 6.04167 78.0625 6.525C78.4458 6.99167 78.6375 7.38333 78.6375 7.7C78.6375 7.85 78.5792 7.975 78.4625 8.075C78.3625 8.175 78.2375 8.225 78.0875 8.225H77.0375C76.8375 8.225 76.6708 8.14167 76.5375 7.975C76.2708 7.65833 76.0375 7.41667 75.8375 7.25C75.6542 7.06667 75.3792 6.90833 75.0125 6.775C74.6625 6.64167 74.2125 6.575 73.6625 6.575C72.8625 6.575 72.2458 6.75 71.8125 7.1C71.3792 7.43333 71.1625 7.875 71.1625 8.425C71.1625 8.775 71.2542 9.075 71.4375 9.325C71.6208 9.55833 71.9708 9.775 72.4875 9.975C73.0208 10.175 73.7875 10.3833 74.7875 10.6C76.3708 10.9333 77.4875 11.4167 78.1375 12.05C78.8042 12.6667 79.1375 13.4583 79.1375 14.425C79.1375 15.1417 78.9292 15.7917 78.5125 16.375C78.0958 16.9583 77.4792 17.4167 76.6625 17.75C75.8625 18.0833 74.9042 18.25 73.7875 18.25Z" fill="#1F1F1F"/>
</svg>
